PathFileType	4	(X/Y/Z)	OpenSim_Sub02_CSBaseline_Accel.trc
DataRate	CameraRate	NumFrames	NumMarkers	Units	OrigDataRate	OrigDataStartFrame	OrigNumFrames
100	100	27	8	m	100	5293	7057
Frame#	Time	torso_imu_offset_imu	pelvis_imu_offset_imu	tibia_r_imu_offset_imu	femur_r_imu_offset_imu	tibia_l_imu_offset_imu	femur_l_imu_offset_imu	toes_r_imu_offset_imu	toes_l_imu_offset_imu
				X1	Y1	Z1	X2	Y2	Z2	X3	Y3	Z3	X4	Y4	Z4	X5	Y5	Z5	X6	Y6	Z6	X7	Y7	Z7	X8		Y8	Z8	

5293	52.92000000	12.03155804	0.00741357	8.89867179	14.13851807	3.50753216	5.49610054	15.13722861	-5.76312722	3.00571674	20.33081067	-4.85837091	1.49523291	17.23563948	1.34603716	1.38110254	8.95341470	1.72064011	-1.07948508	15.45702770	7.71746230	15.66546097	1.80557711	1.89159088	15.14946756
5294	52.93000000	12.34605929	-0.24340357	9.18609937	13.24266982	3.51626824	6.05856854	12.66979962	4.92662273	3.04754824	16.73208415	-4.32438181	1.59653150	18.79702204	2.39843689	1.05389926	9.17418540	1.41582559	-0.72338106	13.50796447	8.11144882	13.24137657	1.09727865	3.79291524	15.26278399
5295	52.94000000	11.27813363	-0.62993912	9.11489943	11.06287641	1.39567238	6.10734762	8.37484270	9.94169207	1.25199011	9.89340706	-5.21724967	0.82731646	19.36225832	2.35959874	1.00499208	10.36949797	0.43083658	-0.25921182	9.03492321	11.59450344	12.21424688	0.98014467	2.88275696	14.71226414
5296	52.95000000	9.66308890	-1.08809329	8.91551595	9.03089645	-0.72443815	5.81794267	4.24566502	10.29105025	0.62731097	4.74990189	-5.98195157	-4.01236587	18.79449500	0.57404939	-0.00638383	11.26260419	-0.99849906	0.18836112	4.57053728	0.91459455	9.32265924	1.99785190	-0.20721447	14.17092909
5297	52.96000000	8.64489605	-1.33574783	8.71995014	8.15042622	-2.32020914	6.23155841	2.81571252	9.55008844	-0.15717037	5.06914558	-3.17659396	-7.18999717	18.07327279	-2.53335421	-1.44205234	11.24398505	-2.43832935	-0.20967616	4.40936966	-3.37500171	9.44105437	6.91598079	0.82209361	13.88941437
5298	52.97000000	8.39105400	-1.37110897	8.35815738	8.06143071	-3.42509375	6.29420203	5.97498593	8.15945047	-1.80913661	6.91886038	1.82910501	-4.97358985	16.55450619	-5.07816368	-2.18927481	11.32037901	-3.22789199	-0.90791386	6.11090166	0.63052305	9.81390186	13.46306776	6.39244566	13.99462445
5299	52.98000000	8.40107031	-1.32789195	7.86787969	8.36272775	-3.91077596	5.68443890	10.68407109	6.68071798	-1.99717528	6.02815569	4.81326214	-0.20916310	13.36014163	-5.28692162	-1.42965078	11.82618927	-3.51203846	-1.12246823	6.55054380	-1.15435556	9.36673683	20.41764238	6.69855001	15.03078507
5300	52.99000000	8.48194672	-1.34901216	7.36144585	8.70754826	-3.74036565	5.46724306	11.10124489	7.09621903	-2.28666429	5.62194901	5.17049629	1.97502893	9.25850629	-5.38420463	1.75297672	12.31409183	-3.10498495	-0.67450981	5.23295610	-0.71610987	9.42032895	20.44340095	5.41235737	13.85453318
5301	53.00000000	8.70509839	-1.41754168	6.95449346	9.41272862	-2.88449616	5.25471168	8.39479426	9.71650695	-2.68259810	8.16169134	3.07046629	0.16846679	5.77773854	-6.37908241	3.97699383	12.44886029	-1.95634722	-0.28422698	5.40120058	-0.09042780	9.13460300	15.84741088	5.63327605	14.37773201
5302	53.01000000	9.34753666	-1.47581905	6.92828609	10.01422236	-1.75205446	4.90517801	7.78692713	13.31954981	-2.29675343	10.60514385	0.49317504	-2.07921283	4.89037215	-6.71744159	4.12718811	12.23630299	-0.70917747	0.11656855	5.48671784	-0.23675477	8.98108594	10.38740358	6.36737693	14.75713297
5303	53.02000000	10.10372474	-1.50969828	7.14037550	10.36195382	-0.43934306	4.50803555	9.44902458	15.37603409	-0.95650593	11.57916553	-1.05892918	-2.70802828	5.21807064	-7.44452445	3.05425985	12.07436618	0.47236514	0.66422906	5.05844397	0.59208699	9.45353988	4.40545650	7.57746059	14.19197132
5304	53.03000000	10.42886290	-1.44260581	7.29150580	10.53772067	0.82853711	4.32620355	10.44788557	12.27156439	0.87372307	11.04243211	-2.54088760	-2.43498378	3.90302144	-8.74962877	2.29048374	11.96139777	0.86723750	0.86623233	4.51832835	0.91396249	9.27498937	4.42353419	4.67050260	13.16661226
5305	53.04000000	9.96733635	-1.22150182	7.35299559	10.50453140	1.76259149	4.22919145	11.02728393	3.65482413	2.82214105	10.25238612	-3.14723989	-1.98095820	2.17884912	-10.01763966	3.12644820	11.74319010	0.77239854	0.92330732	4.13143010	0.74350039	9.35600423	16.66031281	1.83327734	19.96554018
5306	53.05000000	9.11989029	-0.90903227	7.35793959	10.24527218	2.19738270	4.06128698	11.93694736	-5.13851946	2.62893176	9.33332580	-2.50357117	-1.50224042	0.25445450	-11.58834161	4.85233057	11.53269919	1.08980449	1.42632036	3.94255503	0.63837854	9.36152647	15.65069483	8.90854872	26.22236497
5307	53.06000000	8.49445514	-0.55861413	7.36970438	9.89717050	2.15885465	3.84241725	11.80158842	-9.80717247	1.30926794	8.58965769	-1.28467195	-0.77781083	-1.74229039	-12.26435843	5.59545571	11.47045954	1.65455123	1.69645366	3.90842242	0.43833995	9.04822967	4.57283574	9.49389681	14.79358890
5308	53.07000000	8.29826101	-0.29011035	7.33519621	9.87501234	1.77403253	3.62256882	10.20291657	-9.84321377	0.69797112	8.43511936	0.08442274	-0.00289608	-2.12790711	-11.29273301	5.26657317	11.65404237	2.40405945	1.71120107	3.69948542	0.08561081	9.11507902	1.05072263	10.13177201	11.20102188
5309	53.08000000	8.42211465	-0.10650213	7.28354702	9.88353207	1.18103414	3.50500171	9.20476450	-6.72341503	-0.37721621	8.74210793	1.14680707	0.78731028	-1.27938782	-9.13843750	3.89412726	11.58889985	2.77648433	1.57384358	3.58124964	-0.03140681	9.20373473	-2.22784168	7.43841429	5.93839978
5310	53.09000000	8.43650595	-0.01823816	7.15351901	9.44940094	0.59264078	3.38836995	9.80079694	-2.13560338	-1.54426416	9.21901675	1.61732779	1.43057168	-0.94976633	-6.85239901	2.86910371	11.34782572	3.15121509	1.35092702	3.66649112	-0.09301625	9.00103053	-1.75777938	5.00449471	4.73660762
5311	53.10000000	8.16214668	-0.01503555	7.03434545	8.82545173	0.05893821	3.29815229	10.14990846	2.10515809	-1.27772506	9.51744024	1.58383299	1.51842144	-1.13723660	-5.27908419	2.98881670	11.17533254	3.14493528	0.99927315	3.91249016	-0.01378561	8.91843416	-1.72922489	3.36616257	4.68357812
5312	53.11000000	7.77000409	0.00012126	6.96419895	8.28314679	-0.37655429	3.21939703	9.59580449	6.20872203	0.10987154	9.55985946	1.03194018	1.00833536	-1.73885903	-3.78082494	4.14611888	10.66583513	2.52732766	1.12471978	4.26743060	0.10454158	9.00567791	-0.85537195	2.70078060	5.24645784
5313	53.12000000	7.47457124	0.02966481	6.84305302	7.99134522	-0.60649971	3.13561577	8.80627780	9.25801389	1.55223359	9.43690830	0.40080895	0.24971963	-1.25344627	-2.23227313	5.68274181	9.91070768	2.14916695	0.77573590	3.68102084	0.02486210	8.90916834	-0.16522942	2.79601251	6.13469165
5314	53.13000000	7.31638339	0.04446973	6.73321869	8.01904195	-0.57854010	3.00440492	8.92407700	9.34888681	1.61190726	9.27161004	-0.04965907	-0.23993708	-0.42965945	-1.63075795	6.34084547	9.78413492	1.58101893	0.10961589	3.68460401	0.13019483	9.06566720	0.34648525	3.12754333	7.22738417
5315	53.14000000	7.33124219	0.01677991	6.73387677	8.21249265	-0.30009945	2.97746059	9.67388054	6.06727054	0.85304281	9.26581395	-0.31247021	-0.38127115	0.05148504	-2.02853816	5.93623077	9.53087789	1.20293223	-0.16296856	4.09493183	-0.02509114	9.11058909	0.97168728	3.13277919	8.22085718
5316	53.15000000	7.34398283	-0.05466435	6.91219898	8.37493021	0.07350049	2.97491134	10.17080618	1.48160278	0.92525308	9.31348395	-0.55465663	-0.28915654	0.49373867	-2.63707769	5.92109589	9.31630809	0.70321828	-0.40182908	4.24887164	-0.04828668	8.92159116	1.42633659	2.39039879	8.99043078
5317	53.16000000	7.30948514	-0.11915447	7.00982552	8.41922201	0.34536880	2.98090678	10.37688985	-2.56731622	0.95008827	9.29473617	-0.96053129	0.02985708	1.12373138	-3.18161057	6.35732401	8.76295496	0.17153495	0.06010333	4.46382361	0.09010566	9.07380893	1.80607365	0.95699373	9.54542080
5318	53.17000000	7.21924473	-0.13931680	6.91794414	8.38267961	0.80818348	3.02949688	10.24368864	-4.83204681	0.85279951	9.32936454	-1.52920229	0.30476865	1.64951876	-3.56229308	6.51275038	8.43696731	0.52942785	-0.10027785	4.41641130	0.20566177	9.07388694	2.77041744	-0.57198847	10.08523625
5319	53.18000000	7.22492272	-0.08198400	6.96741873	8.46451334	1.13605169	3.05906753	9.92648474	-4.78647619	0.93559753	9.56223266	-2.00245231	0.43769963	1.84708241	-3.33702201	5.98689993	8.31893537	0.70070652	-0.59954961	4.38186413	0.18370824	8.99520893	4.02399711	-1.47822252	10.72156540
